<?xml version="1.0" standalone="no"?>
<!DOCTYPE svg PUBLIC "-//W3C//DTD SVG 20010904//EN"
 "http://www.w3.org/TR/2001/REC-SVG-20010904/DTD/svg10.dtd">
<svg version="1.0" xmlns="http://www.w3.org/2000/svg"
 width="360.000000pt" height="360.000000pt" viewBox="0 0 360.000000 360.000000"
 preserveAspectRatio="xMidYMid meet">

<g transform="translate(0.000000,360.000000) scale(0.100000,-0.100000)"
fill="#000000" stroke="none">
<path d="M1220 2603 c-95 -33 -173 -100 -217 -188 -40 -78 -45 -134 -41 -460
3 -297 4 -312 26 -367 33 -81 108 -160 190 -200 l67 -33 555 0 555 0 62 29
c69 31 148 107 181 172 38 74 44 143 40 469 l-3 310 -27 58 c-48 102 -119 169
-221 206 -56 20 -71 21 -590 20 -455 0 -538 -3 -577 -16z m756 -399 c38 -18
69 -56 79 -97 4 -15 9 -27 11 -27 3 0 40 18 84 40 44 22 86 40 95 40 13 0 15
-25 15 -175 0 -119 -3 -175 -11 -175 -6 0 -50 20 -98 43 l-87 44 -17 -48 c-11
-31 -29 -56 -50 -71 -30 -22 -42 -23 -222 -26 -216 -4 -249 2 -294 53 l-31 36
0 143 c0 132 2 146 22 171 48 61 65 65 276 65 158 0 200 -3 228 -16z"/>
</g>
</svg>
